<svg id="Line" xmlns="http://www.w3.org/2000/svg" viewBox="0 0 64 64"><path d="M20,45H44a8,8,0,0,1,8,8v8a0,0,0,0,1,0,0H12a0,0,0,0,1,0,0V53A8,8,0,0,1,20,45Z" style="fill:#896ff7" id="id_134"></path><path d="M32,50h0a5.658,5.658,0,0,1-5.648-5.99L27,33H37l.648,11.01A5.658,5.658,0,0,1,32,50Z" style="fill:#ffcbbe" id="id_135"></path><path d="M44,7h-.023a4.957,4.957,0,0,0-6.841-1.09,5.987,5.987,0,0,0-10.272,0A4.957,4.957,0,0,0,20.023,7H20a4,4,0,0,0-4,4V25H48V11A4,4,0,0,0,44,7Z" style="fill:#3e3d42" id="id_136"></path><path d="M29,49l-.92.73L24,53l-2.37-7.9a2,2,0,0,1,1.52-2.53l3.24-.48Z" style="fill:#a094f7" id="id_137"></path><path d="M35,49l2.61-6.91,3.24.48a2,2,0,0,1,1.52,2.53L40,53l-4.08-3.27Z" style="fill:#a094f7" id="id_138"></path><path d="M32,41h0A13,13,0,0,1,19,28V19a6,6,0,0,1,2.4-4.8h0A6,6,0,0,1,25,13H39a6,6,0,0,1,3.6,1.2h0A6,6,0,0,1,45,19v9A13,13,0,0,1,32,41Z" style="fill:#ffddce" id="id_139"></path><path d="M17,19h2a0,0,0,0,1,0,0v7a0,0,0,0,1,0,0H17a2,2,0,0,1-2-2V21A2,2,0,0,1,17,19Z" style="fill:#ffcbbe" id="id_140"></path><path d="M47,19h2a0,0,0,0,1,0,0v7a0,0,0,0,1,0,0H47a2,2,0,0,1-2-2V21A2,2,0,0,1,47,19Z" transform="translate(94 45) rotate(-180)" style="fill:#ffcbbe" id="id_141"></path><path d="M44,44h-.606a2.96,2.96,0,0,0-.366-1.009A3.021,3.021,0,0,0,41,41.581l-2.509-.372-.049-.791A14,14,0,0,0,46,28V27h1a3,3,0,0,0,3-3V21a2.985,2.985,0,0,0-1-2.22V11a5.007,5.007,0,0,0-4.53-4.976,5.949,5.949,0,0,0-7.043-1.439,6.989,6.989,0,0,0-10.854,0,5.95,5.95,0,0,0-7.042,1.437A5.006,5.006,0,0,0,15,11v7.78A2.985,2.985,0,0,0,14,21v3a3,3,0,0,0,3,3h1v1a14,14,0,0,0,7.562,12.418l-.049.791-2.559.38a3,3,0,0,0-1.982,1.4A2.96,2.96,0,0,0,20.606,44H20a9.01,9.01,0,0,0-9,9v8a1,1,0,0,0,1,1H52a1,1,0,0,0,1-1V53A9.01,9.01,0,0,0,44,44Zm-2.688.018a.974.974,0,0,1,.1.794l-1.943,6.48L36.193,48.67,38.261,43.2l2.392.353A.985.985,0,0,1,41.312,44.018ZM48,24a1,1,0,0,1-1,1H46V20h1a1,1,0,0,1,1,1ZM17,11a3.008,3.008,0,0,1,3.022-3,1,1,0,0,0,.8-.4,3.957,3.957,0,0,1,5.469-.874,1,1,0,0,0,1.431-.3,4.987,4.987,0,0,1,8.56,0,1,1,0,0,0,.651.462.993.993,0,0,0,.78-.16A3.957,3.957,0,0,1,43.18,7.6,1.044,1.044,0,0,0,44,8a3,3,0,0,1,3,3v7H45.919A6.983,6.983,0,0,0,39,12H25a6.985,6.985,0,0,0-6.919,6H17Zm0,14a1,1,0,0,1-1-1V21a1,1,0,0,1,1-1h1v5Zm3,3V19a5,5,0,0,1,5-5H39a5,5,0,0,1,5,5v9a12,12,0,0,1-24,0ZM32,42a13.947,13.947,0,0,0,4.486-.75l.052.848-2.409,6.377a4.774,4.774,0,0,1-4.258,0L27.462,42.1l.052-.848A13.947,13.947,0,0,0,32,42Zm-9.313,2.018a.972.972,0,0,1,.61-.459l2.442-.362,2.068,5.473-.349.277,0,0-2.924,2.342L22.587,44.81A.978.978,0,0,1,22.687,44.018ZM51,60H13V53a7.008,7.008,0,0,1,7-7h.856l2.186,7.288a1,1,0,0,0,1.583.492L29,50.278a6.577,6.577,0,0,0,5.992,0l4.379,3.5a1,1,0,0,0,1.583-.492L43.144,46H44a7.008,7.008,0,0,1,7,7Z" id="id_142"></path><path d="M27,21a1,1,0,0,0-1,1v2a1,1,0,0,0,2,0V22A1,1,0,0,0,27,21Z" id="id_143"></path><path d="M37,25a1,1,0,0,0,1-1V22a1,1,0,0,0-2,0v2A1,1,0,0,0,37,25Z" id="id_144"></path></svg>