<svg id="line" xmlns="http://www.w3.org/2000/svg" viewBox="0 0 64 64"><defs><style>.cls-1{fill:#231f20;}</style></defs><path class="cls-1" d="M56.259,15.82911H43.79114V9.935a2.66635,2.66635,0,0,0-2.66351-2.663H22.87237a2.66635,2.66635,0,0,0-2.66351,2.663v5.89413H7.741A3.74533,3.74533,0,0,0,4,19.57013V52.98654a3.74543,3.74543,0,0,0,3.741,3.74151H56.259A3.74543,3.74543,0,0,0,60,52.98654V19.57013A3.74533,3.74533,0,0,0,56.259,15.82911ZM22.17741,9.935a.69522.69522,0,0,1,.695-.69447H41.12763a.69522.69522,0,0,1,.695.69447v5.89413H22.17741ZM7.741,17.79767H56.259a1.7742,1.7742,0,0,1,1.77247,1.77246V31.82266H38.38723v-2.0666a.984.984,0,0,0-.98428-.98428H27.13917a.984.984,0,0,0-.98428.98428v2.0666H5.96855V19.57013A1.7742,1.7742,0,0,1,7.741,17.79767ZM36.41867,30.74034v4.00007H28.12345V30.74034ZM56.259,54.75949H7.741a1.77462,1.77462,0,0,1-1.77247-1.773V33.79121H26.15489v1.93347a.984.984,0,0,0,.98428.98428H37.40295a.984.984,0,0,0,.98428-.98428V33.79121H58.03145V52.98654A1.77462,1.77462,0,0,1,56.259,54.75949Z" id="id_101" style="fill: rgb(14, 194, 47);"></path></svg>