<svg xmlns="http://www.w3.org/2000/svg" width="512" height="512" viewBox="0 0 512 512">
<g id="Layer_x0020_1" transform="translate(-194 -194.001)">
<path id="Path_332" data-name="Path 332" d="M351.214,223.075a29.5,29.5,0,0,1,7.382,5.2c.119.115.239.231.357.348A29.731,29.731,0,0,0,351.214,223.075Zm-13.071-3.059a29.318,29.318,0,0,1,13.071,3.059c-.1-.05-.2-.1-.3-.145a29.551,29.551,0,0,0-12.775-2.914Zm29.529,28.395a29.919,29.919,0,0,1-6.228,19.213l.057-.074a30.087,30.087,0,0,0,6.171-19.139Zm-68.954,1.122a29.518,29.518,0,1,1-8.646-20.871,29.431,29.431,0,0,1,8.646,20.871ZM359.2,228.851a29.376,29.376,0,0,1,8.471,19.455c0,.034,0,.07,0,.105a29.684,29.684,0,0,0-8.474-19.56ZM663.918,206H236.081A30.188,30.188,0,0,0,206,236.083v55.857H694V236.083A30.188,30.188,0,0,0,663.918,206Zm-304.806,22.76c.027.031.057.06.085.09-.02-.022-.043-.045-.064-.067Zm281.433,5.18Zm-32.031,4.8a6.817,6.817,0,0,1,6.781-6.781h20.453a6.787,6.787,0,0,1,4.785,1.972v.025l.229.217a6.781,6.781,0,0,1,1.766,4.566v20.453a6.817,6.817,0,0,1-6.781,6.781H615.294A6.741,6.741,0,0,1,610.511,264v-.022l-.245-.232a6.745,6.745,0,0,1-1.754-4.553V238.736Z" fill="#66db4f" fill-rule="evenodd"></path>
<path id="Path_333" data-name="Path 333" d="M338.143,279.05c25.658,0,39.612-31,20.991-50.266l-.021-.022-.1-.1-.013.012a29.488,29.488,0,0,0-41.731-.013l.012.013c-18.611,18.611-5.244,50.376,20.859,50.376Z" fill="#fff" fill-rule="evenodd"></path>
<path id="Path_334" data-name="Path 334" d="M326.013,659.068v-310a16.544,16.544,0,0,1,16.5-16.5H521.23v37.015a28.567,28.567,0,0,0,28.5,28.5h39.284V659.069a16.544,16.544,0,0,1-16.5,16.5h-230a16.544,16.544,0,0,1-16.5-16.5ZM531.7,322.565c-4.767-5.321-168.9-2-189.187-2a28.6,28.6,0,0,0-28.5,28.5v310a28.6,28.6,0,0,0,28.5,28.5h230a28.6,28.6,0,0,0,28.5-28.5l.019-269.622L531.7,322.565Zm6.383,58.665a16.448,16.448,0,0,1-4.852-11.648V340.688L580.2,386.082H549.731a16.45,16.45,0,0,1-11.648-4.852Z" fill="#006" fill-rule="evenodd"></path>
<path id="Path_335" data-name="Path 335" d="M236.081,194H663.918A42.189,42.189,0,0,1,706,236.083V663.92A42.189,42.189,0,0,1,663.918,706H236.081A42.189,42.189,0,0,1,194,663.92V236.083A42.189,42.189,0,0,1,236.081,194Zm427.837,12H236.081A30.188,30.188,0,0,0,206,236.083V663.92A30.188,30.188,0,0,0,236.081,694H663.918A30.188,30.188,0,0,0,694,663.92V236.083A30.188,30.188,0,0,0,663.918,206Z" fill="#006"></path>
<path id="Path_336" data-name="Path 336" d="M200,291.939a6,6,0,0,0,0,12H700a6,6,0,0,0,0-12Z" fill="#006"></path>
<path id="Path_337" data-name="Path 337" d="M338.143,220.016A29.436,29.436,0,0,1,359,228.673l.012-.012h0l.1.1A29.516,29.516,0,0,1,317.272,270.4q-.184-.184-.347-.379a29.454,29.454,0,0,1,.347-41.34l.012-.012h0l-.013-.013c.125-.125.256-.243.389-.356a29.421,29.421,0,0,1,20.483-8.289ZM354.772,232.9l-4.243,4.219a17.574,17.574,0,0,0-24.5-.263c-.086.1-.177.195-.27.288l-4.243-4.244,4.219,4.243a17.575,17.575,0,0,0-.257,24.509c.1.084.19.172.281.263a17.516,17.516,0,0,0,24.8-24.74l-.032-.032,4.244-4.243Zm4.341-4.143a6,6,0,0,1-.1,8.387" fill="#006"></path>
<path id="Path_338" data-name="Path 338" d="M269.2,220.016a29.518,29.518,0,1,1-20.871,8.646A29.433,29.433,0,0,1,269.2,220.016Zm12.387,17.131a17.516,17.516,0,1,0,5.131,12.386A17.466,17.466,0,0,0,281.586,237.147Z" fill="#006"></path>
<path id="Path_339" data-name="Path 339" d="M615.294,219.956h20.453a18.71,18.71,0,0,1,13.246,5.511l-4.219,4.243,4.241-4.244c.128.128.247.26.36.394a18.691,18.691,0,0,1,5.152,12.876V259.19a18.818,18.818,0,0,1-18.781,18.781H615.294a18.851,18.851,0,0,1-18.781-18.781V238.737a18.818,18.818,0,0,1,18.781-18.781Zm20.453,12H615.294a6.817,6.817,0,0,0-6.781,6.781V259.19a6.745,6.745,0,0,0,1.754,4.553l.245.232V264a6.741,6.741,0,0,0,4.783,1.974h20.453a6.817,6.817,0,0,0,6.781-6.781V238.737a6.781,6.781,0,0,0-1.766-4.566l-.229-.217.012-.012-.013-.013a6.787,6.787,0,0,0-4.785-1.972Z" fill="#006"></path>
<path id="Path_340" data-name="Path 340" d="M350.841,355.88h107.5a6,6,0,0,1,6,6v45a6,6,0,0,1-6,6h-107.5a6,6,0,0,1-6-6v-45A6,6,0,0,1,350.841,355.88Zm101.5,12h-95.5v33h95.5Z" fill="#006"></path>
<path id="Path_341" data-name="Path 341" d="M357.716,462.132a6,6,0,1,0,0,12h181.25a6,6,0,0,0,0-12Z" fill="#006"></path>
<path id="Path_342" data-name="Path 342" d="M357.716,498.067a6,6,0,1,0,0,12h181.25a6,6,0,0,0,0-12Z" fill="#006"></path>
<path id="Path_343" data-name="Path 343" d="M357.716,534a6,6,0,1,0,0,12h181.25a6,6,0,0,0,0-12Z" fill="#006"></path>
<path id="Path_344" data-name="Path 344" d="M357.716,569.937a6,6,0,1,0,0,12h181.25a6,6,0,0,0,0-12Z" fill="#006"></path>
<path id="Path_345" data-name="Path 345" d="M357.716,605.872a6,6,0,1,0,0,12h181.25a6,6,0,0,0,0-12Z" fill="#006"></path>
<path id="Path_346" data-name="Path 346" d="M356.841,400.881h95.5v-33h-95.5Z" fill="#fff" fill-rule="evenodd"></path>
<path id="Path_347" data-name="Path 347" d="M464.341,406.881a6,6,0,0,1-6,6h-107.5a6,6,0,0,1-6-6v-45a6,6,0,0,1,6-6h107.5a6,6,0,0,1,6,6Zm56.889-74.314H342.513a16.544,16.544,0,0,0-16.5,16.5v310a16.544,16.544,0,0,0,16.5,16.5h230a16.544,16.544,0,0,0,16.5-16.5V398.081H549.731a28.567,28.567,0,0,1-28.5-28.5V332.567ZM357.716,462.132h181.25a6,6,0,0,1,0,12H357.716a6,6,0,0,1,0-12Zm0,35.935h181.25a6,6,0,0,1,0,12H357.716a6,6,0,0,1,0-12Zm0,35.935h181.25a6,6,0,0,1,0,12H357.716a6,6,0,0,1,0-12Zm0,35.935h181.25a6,6,0,0,1,0,12H357.716a6,6,0,0,1,0-12Zm-6,41.935a6,6,0,0,1,6-6h181.25a6,6,0,0,1,0,12H357.716a6,6,0,0,1-6-6Z" fill="#2eb812" fill-rule="evenodd"></path>
<path id="Path_348" data-name="Path 348" d="M538.082,381.23a16.45,16.45,0,0,0,11.648,4.852H580.2L533.23,340.687v28.895a16.448,16.448,0,0,0,4.852,11.648Z" fill="#2aa112" fill-rule="evenodd"></path>
<path id="Path_349" data-name="Path 349" d="M531.7,322.565l69.333,66.881-.019,269.622a28.6,28.6,0,0,1-28.5,28.5h-230a28.6,28.6,0,0,1-28.5-28.5v-310a28.6,28.6,0,0,1,28.5-28.5c20.288,0,184.42-3.324,189.187,2ZM694,303.939H206v359.98A30.188,30.188,0,0,0,236.081,694H663.917A30.188,30.188,0,0,0,694,663.919V303.939Z" fill="#3ee61c" fill-rule="evenodd"></path>
<path id="Path_350" data-name="Path 350" d="M281.587,261.919A17.518,17.518,0,1,0,269.2,267.05,17.465,17.465,0,0,0,281.587,261.919Z" fill="#fff" fill-rule="evenodd"></path>
<path id="Path_351" data-name="Path 351" d="M640.545,233.941Zm-32.031,4.8v20.453a6.655,6.655,0,0,0,1.363,4.082c.125.162.258.317.391.471.084.076.163.155.245.232V264a6.741,6.741,0,0,0,4.783,1.974h20.453a6.817,6.817,0,0,0,6.781-6.781V238.736a6.786,6.786,0,0,0-1.766-4.566l-.217-.229a.012.012,0,0,1-.013-.013,6.79,6.79,0,0,0-4.785-1.972H615.294a6.817,6.817,0,0,0-6.781,6.781Z" fill="#fff" fill-rule="evenodd"></path>
</g>
</svg>