<svg version="1.1" id="Layer_1" xmlns="http://www.w3.org/2000/svg" xmlns:xlink="http://www.w3.org/1999/xlink" x="0px" y="0px" viewBox="0 0 480 480" style="enable-background:new 0 0 480 480;" xml:space="preserve">
<style type="text/css">
	.st0{fill:#FFB74D;}
	.st1{fill:#64B5F6;}
	.st2{fill:#F48FB1;}
	.st3{fill:#8BC34A;}
	.st4{fill:#C0CA33;}
	.st5{fill:#F9A825;}
	.st6{fill:#689F38;}
	.st7{fill:#827717;}
	.st8{fill:#BA68C8;}
	.st9{fill:#5C6BC0;}
	.st10{fill:#D81B60;}
	.st11{fill:#880E4F;}
	.st12{fill:#FF5252;}
	.st13{fill:#EF6C00;}
	.st14{fill:#F44336;}
	.st15{fill:#DD2C00;}
	.st16{fill:#E65100;}
	.st17{fill:#B71C1C;}
	.st18{fill:#00ACC1;}
	.st19{fill:#0277BD;}
	.st20{fill:#00796B;}
	.st21{fill:#006064;}
	.st22{fill:#1B5E20;}
	.st23{fill:#0D47A1;}
</style>
<path class="st0" d="M245.3,228c-1.8-2.1-3.7-4.2-5.3-6.4c-1.5,2.3-3.4,4.3-5.3,6.4c1.7,0.1,3.5,0.3,5.3,0.3S243.5,228.2,245.3,228z
	 M231.7,132.5c3.2,3.2,5.9,6.6,8.3,10.1c2.4-3.5,5.1-7,8.3-10.1l57.9-57.9c1.2-1.2,2.6-2,3.8-3.1C307.5,34.9,277.2,6,240,6
	s-67.5,28.9-70,65.4c1.2,1.1,2.6,1.9,3.8,3.1L231.7,132.5z" id="id_101"></path>
<path class="st1" d="M234.7,251.9c1.8,2.1,3.7,4.2,5.3,6.4c1.5-2.2,3.4-4.3,5.3-6.4c-1.7-0.1-3.5-0.2-5.3-0.2
	S236.5,251.8,234.7,251.9z M248.3,347.5c-3.2-3.2-5.9-6.6-8.3-10.1c-2.4,3.6-5.1,7-8.3,10.1l-57.9,57.9c-1.2,1.2-2.5,2-3.8,3.1
	c2.5,36.5,32.8,65.4,70,65.4s67.5-28.9,70-65.4c-1.2-1.1-2.6-1.9-3.8-3.1L248.3,347.5z" id="id_102"></path>
<path class="st2" d="M132.5,248.3c3.2-3.2,6.6-5.9,10.1-8.3c-3.5-2.4-7-5.1-10.1-8.3l-57.9-57.9c-1.2-1.2-2-2.5-3.1-3.8
	C34.9,172.5,6,202.8,6,240s28.9,67.5,65.4,70c1.1-1.2,1.9-2.6,3.1-3.8L132.5,248.3z M228,234.7c-2.1,1.8-4.2,3.7-6.4,5.3
	c2.3,1.5,4.3,3.4,6.4,5.3c0.1-1.7,0.3-3.5,0.3-5.3S228.2,236.5,228,234.7z" id="id_103"></path>
<path class="st3" d="M251.7,240c0,1.8,0.1,3.5,0.2,5.3c2.1-1.8,4.2-3.7,6.4-5.3c-2.2-1.5-4.3-3.4-6.4-5.3
	C251.8,236.5,251.7,238.2,251.7,240z M474,240c0-37.2-28.9-67.5-65.4-70c-1.1,1.2-1.9,2.6-3.1,3.8l-57.9,57.9
	c-3.2,3.2-6.6,5.8-10.1,8.3c3.6,2.4,7,5.1,10.1,8.3l57.9,57.9c1.2,1.2,2,2.6,3.1,3.8C445.1,307.5,474,277.2,474,240z" id="id_104"></path>
<path class="st4" d="M310.2,158.1c0,4.4-0.5,8.7-1.2,12.9c4.2-0.8,8.5-1.2,12.9-1.2h81.9c1.6,0,3.2,0.1,4.8,0.2
	c24-27.6,23.2-69.3-3.1-95.5c-26.3-26.2-67.9-27.1-95.5-3.1c0.1,1.6,0.3,3.1,0.3,4.8V158.1z M251.9,234.7c0.2-2.6,0.5-5.2,1-7.7
	c-2.5,0.5-5.1,0.8-7.7,1c1.1,1.2,1.9,2.5,3,3.7C249.4,232.9,250.8,233.7,251.9,234.7z" id="id_105"></path>
<path class="st5" d="M248.3,132.5c-3.2,3.2-5.9,6.6-8.3,10.1c16.3,23.8,16.3,55.2,0,79c1.5,2.3,3.4,4.3,5.3,6.4
	c2.6-0.2,5.2-0.5,7.7-1c5.3-28.4,27.6-50.7,56-56c0.8-4.2,1.3-8.5,1.3-13V76.2c0-1.6-0.1-3.2-0.2-4.8c-1.2,1.1-2.6,1.9-3.8,3.1
	L248.3,132.5z" id="id_106"></path>
<path class="st6" d="M321.9,169.8c-4.4,0-8.7,0.5-12.9,1.2c-5.3,28.4-27.6,50.7-56,56c-0.5,2.5-0.8,5.1-1,7.7
	c2.1,1.8,4.2,3.7,6.4,5.3c23.8-16.3,55.3-16.3,79,0c3.6-2.4,7-5.1,10.1-8.3l57.9-57.9c1.2-1.2,2-2.5,3.1-3.8
	c-1.6-0.1-3.2-0.2-4.8-0.2H321.9z" id="id_107"></path>
<path class="st7" d="M309,171c-28.4,5.3-50.7,27.6-56,56C281.3,221.8,303.7,199.4,309,171z" id="id_108"></path>
<path class="st8" d="M169.8,321.9c0-4.4,0.5-8.7,1.2-12.9c-4.2,0.8-8.5,1.2-12.9,1.2H76.2c-1.6,0-3.2-0.1-4.8-0.2
	c-24,27.6-23.2,69.3,3.1,95.5c26.2,26.2,67.9,27.1,95.5,3.1c-0.1-1.6-0.2-3.2-0.2-4.8V321.9z M228,245.3c-0.2,2.6-0.5,5.2-1,7.7
	c2.5-0.5,5.1-0.8,7.7-1c-1.1-1.2-1.9-2.5-3-3.7C230.6,247.1,229.2,246.3,228,245.3z" id="id_109"></path>
<path class="st9" d="M231.7,347.5c3.2-3.2,5.9-6.6,8.3-10.1c-16.3-23.8-16.3-55.2,0-79c-1.5-2.2-3.4-4.3-5.3-6.4
	c-2.6,0.2-5.2,0.5-7.7,1c-5.3,28.4-27.6,50.7-56,56c-0.8,4.2-1.3,8.5-1.3,13v81.9c0,1.6,0.1,3.2,0.2,4.8c1.2-1.1,2.6-1.9,3.8-3.1
	L231.7,347.5z" id="id_110"></path>
<path class="st10" d="M158.1,310.2c4.4,0,8.7-0.5,12.9-1.2c5.3-28.4,27.6-50.7,56-56c0.5-2.5,0.8-5.1,1-7.7
	c-2.1-1.8-4.2-3.7-6.4-5.3c-23.8,16.3-55.2,16.3-79,0c-3.6,2.4-7,5.1-10.1,8.3l-57.9,57.9c-1.2,1.2-2,2.6-3.1,3.8
	c1.6,0.1,3.2,0.2,4.8,0.2H158.1z" id="id_111"></path>
<path class="st11" d="M171,309c28.4-5.3,50.7-27.6,56-56C198.7,258.2,176.3,280.6,171,309z" id="id_112"></path>
<path class="st12" d="M234.7,228c-2.6-0.2-5.2-0.5-7.7-1c0.5,2.5,0.8,5.1,1,7.7c1.2-1.1,2.5-1.9,3.7-3
	C232.9,230.6,233.7,229.2,234.7,228z M158.1,169.8c4.4,0,8.7,0.5,12.9,1.2c-0.8-4.2-1.2-8.5-1.2-12.9V76.2c0-1.6,0.1-3.2,0.2-4.8
	c-27.6-24-69.3-23.2-95.5,3.1s-27.1,67.9-3.1,95.5c1.6-0.1,3.1-0.2,4.8-0.2H158.1z" id="id_113"></path>
<path class="st13" d="M169.8,158.1c0,4.4,0.5,8.7,1.2,12.9c28.4,5.3,50.7,27.6,56,56c2.5,0.5,5.1,0.8,7.7,1c1.8-2.1,3.7-4.2,5.3-6.4
	c-16.3-23.8-16.3-55.2,0-79c-2.4-3.5-5.1-7-8.3-10.1l-57.9-57.9c-1.2-1.2-2.5-2-3.8-3.1c-0.1,1.6-0.2,3.2-0.2,4.8V158.1z" id="id_114"></path>
<path class="st14" d="M132.5,231.7c3.2,3.2,6.6,5.9,10.1,8.3c23.8-16.3,55.2-16.3,79,0c2.3-1.5,4.3-3.4,6.4-5.3
	c-0.2-2.6-0.5-5.2-1-7.7c-28.4-5.3-50.7-27.6-56-56c-4.2-0.8-8.5-1.3-13-1.3H76.2c-1.6,0-3.2,0.1-4.8,0.2c1.1,1.2,1.9,2.6,3.1,3.8
	L132.5,231.7z" id="id_115"></path>
<path class="st15" d="M171,171c5.3,28.4,27.6,50.7,56,56C221.8,198.7,199.4,176.3,171,171z" id="id_116"></path>
<path class="st16" d="M240,142.6c-16.3,23.8-16.3,55.2,0,79C256.3,197.8,256.3,166.4,240,142.6z" id="id_117"></path>
<path class="st17" d="M142.6,240c23.8,16.3,55.2,16.3,79,0C197.8,223.7,166.4,223.7,142.6,240z" id="id_118"></path>
<path class="st18" d="M321.9,310.2c-4.4,0-8.7-0.5-12.9-1.2c0.8,4.2,1.2,8.5,1.2,12.9v81.9c0,1.6-0.1,3.2-0.2,4.8
	c27.6,24,69.3,23.2,95.5-3.1c26.2-26.3,27.1-67.9,3.1-95.5c-1.6,0.1-3.2,0.3-4.8,0.3H321.9z M245.3,251.9c2.6,0.2,5.2,0.5,7.7,1
	c-0.5-2.5-0.8-5.1-1-7.7c-1.2,1.1-2.5,1.9-3.7,3C247.1,249.4,246.3,250.8,245.3,251.9z" id="id_119"></path>
<path class="st19" d="M310.2,321.9c0-4.4-0.5-8.7-1.2-12.9c-28.4-5.3-50.7-27.6-56-56c-2.5-0.5-5.1-0.8-7.7-1
	c-1.8,2.1-3.7,4.2-5.3,6.4c16.3,23.8,16.3,55.3,0,79c2.4,3.6,5.1,7,8.3,10.1l57.9,57.9c1.2,1.2,2.6,2,3.8,3.1
	c0.1-1.6,0.2-3.2,0.2-4.8V321.9z" id="id_120"></path>
<path class="st20" d="M347.5,248.3c-3.2-3.2-6.6-5.9-10.1-8.3c-23.8,16.3-55.2,16.3-79,0c-2.2,1.5-4.3,3.4-6.4,5.3
	c0.2,2.6,0.5,5.2,1,7.7c28.4,5.3,50.7,27.6,56,56c4.2,0.8,8.5,1.3,13,1.3h81.9c1.6,0,3.2-0.1,4.8-0.2c-1.1-1.2-1.9-2.6-3.1-3.8
	L347.5,248.3z" id="id_121"></path>
<path class="st21" d="M309,309c-5.3-28.4-27.6-50.7-56-56C258.2,281.3,280.6,303.7,309,309z" id="id_122"></path>
<path class="st22" d="M258.4,240c23.8,16.3,55.2,16.3,79,0C313.7,223.7,282.2,223.7,258.4,240z" id="id_123"></path>
<path class="st23" d="M240,337.4c16.3-23.8,16.3-55.2,0-79C223.7,282.2,223.7,313.7,240,337.4z" id="id_124"></path>
</svg>