<svg version="1.1" id="Layer_1" xmlns="http://www.w3.org/2000/svg" xmlns:xlink="http://www.w3.org/1999/xlink" x="0px" y="0px" viewBox="0 0 512 512" style="enable-background:new 0 0 512 512;" xml:space="preserve">
<style type="text/css">
	.st0{fill-rule:evenodd;clip-rule:evenodd;fill:#00FB73;}
</style>
<g>
<g>
<g>
<path class="st0" d="M255.5895,7.4681c-135.9882,0-246.6193,110.6311-246.6193,246.6178
				c0,47.8372,13.5796,93.7824,39.39,133.6586l-37.4639,82.5239c-3.453,7.6089-2.1955,16.5236,3.2249,22.8793
				c4.153,4.8687,10.1751,7.5604,16.3867,7.5604c1.8976,0,3.8123-0.2509,5.6956-0.7684l103.2261-28.3211
				c35.6362,19.0584,75.6008,29.0895,116.1599,29.0895c135.9867,0,246.6207-110.6339,246.6207-246.6221
				C502.2101,118.0992,391.5762,7.4681,255.5895,7.4681z M255.5895,457.6355c-36.0183,0-71.4592-9.582-102.489-27.7137
				c-3.3261-1.9432-7.0813-2.9398-10.8637-2.9398c-1.9104,0-3.8265,0.2552-5.6984,0.7684l-67.4345,18.501l23.488-51.7421
				c3.1921-7.0357,2.3738-15.2391-2.1456-21.5021c-25.1247-34.825-38.4034-75.9444-38.4034-118.9214
				c0-112.2364,91.3103-203.5467,203.5467-203.5467c112.2378,0,203.5481,91.3103,203.5481,203.5467
				C459.1376,366.3237,367.8273,457.6355,255.5895,457.6355z" id="id_101"></path>
</g>
<g>
<path class="st0" d="M350.407,291.0181c-10.329-6.1775-23.7689-13.0749-35.9356-8.0964
				c-9.3325,3.8194-15.2932,18.4312-21.3395,25.8932c-3.1065,3.8294-6.8105,4.4282-11.5765,2.5092
				c-35.0389-13.9574-61.8915-37.3499-81.2265-69.5787c-3.2748-5.0098-2.6874-8.959,1.2603-13.6038
				c5.8439-6.8746,13.1761-14.6845,14.7558-23.9556c1.5797-9.2669-2.7658-20.1035-6.598-28.3553
				c-4.8958-10.5457-10.3704-25.5852-20.9318-31.5502c-9.7146-5.486-22.5029-2.4151-31.1553,4.6306
				c-14.9325,12.161-22.1365,31.2123-21.9212,50.0997c0.0613,5.3663,0.7214,10.7182,1.9746,15.8977
				c3.0125,12.4576,8.7693,24.0882,15.2505,35.1486c4.8844,8.3374,10.1936,16.4295,15.922,24.2108
				c18.7434,25.4612,42.0603,47.5862,69.0569,64.1212c13.4898,8.2618,28.0203,15.5085,43.0654,20.4784
				c16.8743,5.5744,31.9095,11.3798,50.1296,7.9182c19.0784-3.6227,37.8845-15.4287,45.4563-33.8142
				c2.2397-5.4404,3.3646-11.5038,2.11-17.2521C376.1105,303.8335,360.0203,296.7678,350.407,291.0181z" id="id_102"></path>
</g>
</g>
</g>
</svg>